{"glyphs":{"0":{"ha":692,"x_min":69,"x_max":622,"o":"m 318 154 l 231 154 l 231 735 l 318 735 l 318 889 l 181 889 l 69 778 l 69 111 l 181 0 l 318 0 l 318 154 m 360 735 l 461 735 l 461 154 l 360 154 l 360 0 l 511 0 l 622 111 l 622 778 l 511 889 l 360 889 l 360 735 z "},"1":{"ha":335,"x_min":21,"x_max":265,"o":"m 265 889 l 101 889 l 21 808 l 21 763 l 104 763 l 104 0 l 265 0 l 265 889 z "},"2":{"ha":692,"x_min":69,"x_max":622,"o":"m 622 0 l 622 154 l 231 154 l 231 231 l 622 538 l 622 778 l 511 889 l 181 889 l 69 778 l 69 733 l 461 735 l 461 610 l 69 303 l 69 0 l 622 0 z "},"3":{"ha":657,"x_min":35,"x_max":588,"o":"m 588 111 l 588 389 l 518 458 l 588 528 l 588 778 l 476 889 l 146 889 l 35 778 l 35 735 l 426 735 l 426 539 l 228 539 l 228 378 l 426 378 l 426 154 l 35 154 l 35 111 l 146 0 l 476 0 l 588 111 z "},"4":{"ha":643,"x_min":0,"x_max":622,"o":"m 386 0 l 531 0 l 531 207 l 622 207 l 622 364 l 531 364 l 531 889 l 386 889 l 386 0 m 329 364 l 199 364 l 329 557 l 329 824 l 0 344 l 96 207 l 329 207 l 329 364 z "},"5":{"ha":692,"x_min":69,"x_max":622,"o":"m 622 111 l 622 449 l 511 560 l 231 560 l 231 735 l 622 735 l 622 889 l 69 889 l 69 510 l 181 399 l 461 399 l 461 154 l 69 154 l 69 111 l 181 0 l 511 0 l 622 111 z "},"6":{"ha":692,"x_min":69,"x_max":622,"o":"m 372 735 l 622 735 l 622 778 l 511 889 l 372 889 l 372 735 m 324 154 l 231 154 l 231 378 l 324 378 l 324 539 l 231 539 l 231 735 l 324 735 l 324 889 l 181 889 l 69 778 l 69 111 l 181 0 l 324 0 l 324 154 m 372 378 l 461 378 l 461 154 l 372 154 l 372 0 l 511 0 l 622 111 l 622 428 l 511 539 l 372 539 l 372 378 z "},"7":{"ha":574,"x_min":7,"x_max":560,"o":"m 560 707 l 560 889 l 7 889 l 7 735 l 401 735 l 60 0 l 226 0 l 560 707 z "},"8":{"ha":692,"x_min":69,"x_max":622,"o":"m 310 532 l 231 532 l 231 735 l 310 735 l 310 889 l 181 889 l 69 778 l 69 524 l 139 454 l 69 385 l 69 111 l 181 0 l 310 0 l 310 154 l 231 154 l 231 376 l 310 376 l 310 532 m 367 735 l 461 735 l 461 532 l 367 532 l 367 376 l 461 376 l 461 154 l 367 154 l 367 0 l 511 0 l 622 111 l 622 385 l 553 454 l 622 524 l 622 778 l 511 889 l 367 889 l 367 735 z "},"9":{"ha":692,"x_min":69,"x_max":622,"o":"m 304 154 l 69 154 l 69 111 l 181 0 l 304 0 l 304 154 m 304 517 l 231 517 l 231 735 l 304 735 l 304 889 l 181 889 l 69 778 l 69 467 l 181 356 l 304 356 l 304 517 m 367 735 l 461 735 l 461 517 l 367 517 l 367 356 l 461 356 l 461 154 l 367 154 l 367 0 l 511 0 l 622 111 l 622 778 l 511 889 l 367 889 l 367 735 z "}," ":{"ha":347,"x_min":0,"x_max":0,"o":""}," ":{"ha":347,"x_min":0,"x_max":0,"o":""},"!":{"ha":328,"x_min":56,"x_max":272,"o":"m 272 889 l 56 889 l 103 254 l 224 254 l 272 889 m 247 0 l 247 167 l 81 167 l 81 0 l 247 0 z "},"\"":{"ha":476,"x_min":69,"x_max":407,"o":"m 407 889 l 253 889 l 279 546 l 381 546 l 407 889 m 224 889 l 69 889 l 96 546 l 197 546 l 224 889 z "},"#":{"ha":742,"x_min":69,"x_max":672,"o":"m 290 889 l 243 632 l 69 632 l 69 532 l 225 532 l 194 363 l 69 363 l 69 263 l 175 263 l 128 0 l 226 0 l 389 889 l 290 889 m 456 532 l 425 363 l 344 363 l 326 263 l 406 263 l 358 0 l 461 0 l 508 263 l 672 263 l 672 363 l 526 363 l 557 532 l 672 532 l 672 632 l 575 632 l 621 889 l 521 889 l 474 632 l 397 632 l 378 532 l 456 532 z "},"$":{"ha":650,"x_min":69,"x_max":581,"o":"m 581 200 l 581 411 l 469 522 l 231 522 l 231 663 l 581 663 l 581 699 l 469 810 l 386 810 l 386 896 l 264 894 l 264 810 l 181 810 l 69 699 l 69 481 l 181 369 l 419 369 l 419 236 l 69 236 l 69 200 l 181 89 l 264 89 l 264 0 l 386 0 l 386 89 l 469 89 l 581 200 z "},"%":{"ha":914,"x_min":54,"x_max":864,"o":"m 406 556 l 406 797 l 317 886 l 143 886 l 54 797 l 54 556 l 143 467 l 317 467 l 406 556 m 278 589 l 182 589 l 182 764 l 278 764 l 278 589 m 694 624 l 617 689 l 232 285 l 308 219 l 694 624 m 864 88 l 864 329 l 775 418 l 601 418 l 513 329 l 513 88 l 601 -1 l 775 -1 l 864 88 m 736 121 l 640 121 l 640 296 l 736 296 l 736 121 z "},"'":{"ha":293,"x_min":69,"x_max":224,"o":"m 224 889 l 69 889 l 96 546 l 197 546 l 224 889 z "},"(":{"ha":399,"x_min":83,"x_max":357,"o":"m 357 -112 l 235 0 l 235 839 l 354 949 l 251 1057 l 83 889 l 83 -50 l 251 -218 l 357 -112 z "},")":{"ha":399,"x_min":42,"x_max":315,"o":"m 315 -50 l 315 889 l 147 1057 l 44 949 l 164 839 l 164 0 l 42 -112 l 147 -218 l 315 -50 z "},"*":{"ha":649,"x_min":65,"x_max":589,"o":"m 589 654 l 551 771 l 389 718 l 389 889 l 267 889 l 267 718 l 103 771 l 65 654 l 229 601 l 128 463 l 226 390 l 328 529 l 429 390 l 528 463 l 426 601 l 589 654 z "},"+":{"ha":678,"x_min":63,"x_max":615,"o":"m 615 329 l 615 476 l 413 476 l 413 678 l 265 678 l 265 476 l 63 476 l 63 329 l 265 329 l 265 126 l 413 126 l 413 329 l 615 329 z "},",":{"ha":296,"x_min":61,"x_max":250,"o":"m 250 182 l 61 182 l 61 -196 l 153 -196 l 250 182 z "},"-":{"ha":528,"x_min":56,"x_max":472,"o":"m 472 329 l 472 476 l 56 476 l 56 329 l 472 329 z "},"­":{"ha":528,"x_min":56,"x_max":472,"o":"m 472 329 l 472 476 l 56 476 l 56 329 l 472 329 z "},".":{"ha":342,"x_min":83,"x_max":258,"o":"m 258 0 l 258 182 l 83 182 l 83 0 l 258 0 z "},"/":{"ha":447,"x_min":-26,"x_max":468,"o":"m 468 958 l 340 958 l -26 -136 l 100 -136 l 468 958 z "},":":{"ha":342,"x_min":83,"x_max":258,"o":"m 258 371 l 258 553 l 83 553 l 83 371 l 258 371 m 258 0 l 258 182 l 83 182 l 83 0 l 258 0 z "},";":{"ha":356,"x_min":97,"x_max":286,"o":"m 272 371 l 272 553 l 97 553 l 97 371 l 272 371 m 286 182 l 97 182 l 97 -196 l 189 -196 l 286 182 z "},";":{"ha":356,"x_min":97,"x_max":286,"o":"m 272 371 l 272 553 l 97 553 l 97 371 l 272 371 m 286 182 l 97 182 l 97 -196 l 189 -196 l 286 182 z "},"<":{"ha":567,"x_min":83,"x_max":483,"o":"m 483 606 l 383 707 l 83 407 l 383 108 l 482 208 l 311 407 l 483 606 z "},"=":{"ha":678,"x_min":83,"x_max":594,"o":"m 594 447 l 594 594 l 83 594 l 83 447 l 594 447 m 594 210 l 594 357 l 83 357 l 83 210 l 594 210 z "},">":{"ha":567,"x_min":83,"x_max":483,"o":"m 483 407 l 183 707 l 83 606 l 256 407 l 85 208 l 183 108 l 483 407 z "},"?":{"ha":719,"x_min":83,"x_max":636,"o":"m 636 475 l 636 778 l 525 889 l 194 889 l 83 778 l 83 733 l 475 735 l 475 525 l 356 525 l 244 414 l 244 254 l 406 254 l 406 364 l 525 364 l 636 475 m 408 0 l 408 167 l 242 167 l 242 0 l 408 0 z "},"A":{"ha":657,"x_min":0,"x_max":657,"o":"m 254 889 l 0 0 l 158 0 l 389 889 l 254 889 m 396 364 l 299 364 l 261 218 l 439 218 l 501 0 l 657 0 l 419 828 l 347 553 l 396 364 z "},"B":{"ha":692,"x_min":69,"x_max":622,"o":"m 221 889 l 69 889 l 69 0 l 221 0 l 221 889 m 269 375 l 461 375 l 461 154 l 269 154 l 269 0 l 511 0 l 622 111 l 622 382 l 553 451 l 622 521 l 622 778 l 511 889 l 269 889 l 269 735 l 461 735 l 461 528 l 269 528 l 269 375 z "},"C":{"ha":640,"x_min":69,"x_max":606,"o":"m 606 111 l 606 154 l 231 154 l 231 735 l 606 735 l 606 778 l 494 889 l 181 889 l 69 778 l 69 111 l 181 0 l 494 0 l 606 111 z "},"D":{"ha":693,"x_min":69,"x_max":624,"o":"m 226 889 l 69 889 l 69 0 l 226 0 l 226 889 m 275 735 l 463 735 l 463 154 l 275 154 l 275 0 l 513 0 l 624 111 l 624 778 l 513 889 l 275 889 l 275 735 z "},"E":{"ha":665,"x_min":69,"x_max":624,"o":"m 624 0 l 624 154 l 232 154 l 232 364 l 497 364 l 497 525 l 232 525 l 232 735 l 624 735 l 624 889 l 69 889 l 69 0 l 624 0 z "},"F":{"ha":633,"x_min":69,"x_max":613,"o":"m 613 889 l 69 889 l 69 0 l 231 0 l 231 357 l 486 357 l 486 518 l 231 518 l 231 735 l 613 735 l 613 889 z "},"G":{"ha":692,"x_min":69,"x_max":622,"o":"m 622 778 l 511 889 l 181 889 l 69 778 l 69 111 l 181 0 l 390 0 l 468 78 l 588 0 l 622 0 l 622 497 l 468 497 l 468 164 l 231 164 l 231 735 l 622 735 l 622 778 z "},"H":{"ha":693,"x_min":71,"x_max":624,"o":"m 624 889 l 463 889 l 463 525 l 232 525 l 232 889 l 71 889 l 71 0 l 232 0 l 232 364 l 463 364 l 463 0 l 624 0 l 624 889 z "},"I":{"ha":300,"x_min":69,"x_max":231,"o":"m 231 889 l 69 889 l 69 0 l 231 0 l 231 889 z "},"J":{"ha":608,"x_min":7,"x_max":539,"o":"m 539 111 l 539 889 l 378 889 l 378 154 l 7 154 l 7 111 l 118 0 l 428 0 l 539 111 z "},"K":{"ha":771,"x_min":69,"x_max":771,"o":"m 771 0 l 535 619 l 738 889 l 549 889 l 231 471 l 231 889 l 69 889 l 69 0 l 231 0 l 231 232 l 417 475 l 604 0 l 771 0 z "},"L":{"ha":615,"x_min":69,"x_max":588,"o":"m 588 0 l 588 154 l 231 154 l 231 889 l 69 889 l 69 0 l 588 0 z "},"M":{"ha":789,"x_min":69,"x_max":719,"o":"m 719 889 l 572 889 l 394 449 l 217 889 l 69 889 l 69 0 l 226 0 l 226 465 l 354 147 l 435 147 l 563 465 l 564 0 l 719 0 l 719 889 z "},"N":{"ha":692,"x_min":69,"x_max":622,"o":"m 622 0 l 622 889 l 464 889 l 464 385 l 210 889 l 69 889 l 69 0 l 229 0 l 228 504 l 482 0 l 622 0 z "},"O":{"ha":692,"x_min":69,"x_max":622,"o":"m 324 154 l 231 154 l 231 735 l 324 735 l 324 889 l 181 889 l 69 778 l 69 111 l 181 0 l 324 0 l 324 154 m 378 735 l 461 735 l 461 154 l 378 154 l 378 0 l 511 0 l 622 111 l 622 778 l 511 889 l 378 889 l 378 735 z "},"P":{"ha":692,"x_min":69,"x_max":622,"o":"m 221 889 l 69 889 l 69 0 l 221 0 l 221 889 m 267 735 l 461 735 l 461 497 l 267 497 l 267 343 l 511 343 l 622 454 l 622 778 l 511 889 l 267 889 l 267 735 z "},"Q":{"ha":692,"x_min":69,"x_max":622,"o":"m 231 154 l 231 735 l 313 735 l 313 889 l 181 889 l 69 778 l 69 111 l 181 0 l 247 0 l 293 154 l 231 154 m 515 0 l 622 111 l 622 778 l 511 889 l 369 889 l 369 735 l 461 735 l 461 154 l 419 154 l 472 0 l 515 0 m 335 154 l 285 -22 l 301 -224 l 403 -224 l 419 0 l 422 0 l 382 154 l 335 154 z "},"R":{"ha":671,"x_min":69,"x_max":650,"o":"m 226 889 l 69 889 l 69 0 l 226 0 l 226 889 m 281 735 l 461 735 l 461 504 l 281 504 l 281 343 l 338 343 l 471 0 l 650 0 l 511 343 l 622 454 l 622 778 l 511 889 l 281 889 l 281 735 z "},"S":{"ha":692,"x_min":69,"x_max":622,"o":"m 622 111 l 622 421 l 511 533 l 238 533 l 238 725 l 619 725 l 619 818 l 549 889 l 181 889 l 69 778 l 69 481 l 181 369 l 454 369 l 454 164 l 72 164 l 72 71 l 143 0 l 511 0 l 622 111 z "},"T":{"ha":650,"x_min":14,"x_max":636,"o":"m 636 889 l 14 889 l 14 733 l 244 735 l 244 0 l 406 0 l 406 735 l 636 735 l 636 889 z "},"U":{"ha":692,"x_min":69,"x_max":622,"o":"m 622 111 l 622 889 l 461 889 l 461 154 l 231 154 l 231 889 l 69 889 l 69 111 l 181 0 l 511 0 l 622 111 z "},"V":{"ha":638,"x_min":0,"x_max":638,"o":"m 638 889 l 464 889 q 397 605 424 719 q 356 424 371 490 q 333 322 340 357 q 323 278 325 288 q 171 889 321 269 l 0 889 l 242 0 l 397 0 l 638 889 z "},"W":{"ha":771,"x_min":0,"x_max":771,"o":"m 771 889 l 603 889 l 536 393 l 428 808 l 343 808 l 233 386 l 168 889 l 0 889 l 139 0 l 282 0 l 385 393 l 488 0 l 631 0 l 771 889 z "},"X":{"ha":699,"x_min":0,"x_max":699,"o":"m 699 0 l 446 444 l 699 889 l 518 889 l 351 583 l 179 889 l 0 889 l 257 443 l 1 0 l 181 0 l 351 304 l 526 0 l 699 0 z "},"Y":{"ha":663,"x_min":0,"x_max":663,"o":"m 663 889 l 479 889 l 336 538 l 188 889 l 0 889 l 254 364 l 256 0 l 415 0 l 415 364 l 663 889 z "},"Z":{"ha":636,"x_min":42,"x_max":594,"o":"m 594 0 l 594 153 l 231 154 l 594 728 l 594 889 l 42 889 l 42 733 l 406 735 l 42 161 l 42 0 l 594 0 z "},"[":{"ha":414,"x_min":83,"x_max":331,"o":"m 331 -206 l 331 -58 l 231 -58 l 231 814 l 331 814 l 331 961 l 83 961 l 83 -206 l 331 -206 z "},"\\":{"ha":447,"x_min":-21,"x_max":474,"o":"m 474 -136 l 107 958 l -21 958 l 347 -136 l 474 -136 z "},"]":{"ha":414,"x_min":83,"x_max":331,"o":"m 331 -206 l 331 961 l 83 961 l 83 814 l 183 814 l 183 -58 l 83 -58 l 83 -206 l 331 -206 z "},"^":{"ha":733,"x_min":122,"x_max":617,"o":"m 617 989 l 369 1175 l 122 989 l 186 876 l 369 994 l 554 876 l 617 989 z "},"_":{"ha":636,"x_min":0,"x_max":636,"o":"m 636 -119 l 636 0 l 0 0 l 0 -119 l 636 -119 z "},"`":{"ha":564,"x_min":122,"x_max":469,"o":"m 469 1010 l 164 1133 l 122 978 l 439 893 l 469 1010 z "},"a":{"ha":678,"x_min":56,"x_max":608,"o":"m 300 707 l 181 707 l 69 596 l 69 553 l 300 553 l 300 707 m 300 147 l 217 147 l 217 281 l 300 281 l 300 428 l 181 428 l 56 303 l 56 111 l 167 0 l 300 0 l 300 147 m 351 281 l 447 281 l 447 147 l 351 147 l 351 0 l 367 0 l 447 81 l 572 0 l 608 0 l 608 596 l 497 707 l 351 707 l 351 553 l 447 553 l 447 428 l 351 428 l 351 281 z "},"b":{"ha":678,"x_min":69,"x_max":608,"o":"m 232 154 l 231 154 l 231 553 l 232 553 l 232 628 l 231 626 l 231 944 l 204 943 l 69 893 l 71 0 l 106 0 l 231 81 l 232 79 l 232 154 m 281 553 l 447 553 l 447 154 l 281 154 l 281 31 l 311 0 l 497 0 l 608 111 l 608 596 l 497 707 l 311 707 l 281 676 l 281 553 z "},"c":{"ha":636,"x_min":69,"x_max":601,"o":"m 601 111 l 601 154 l 231 154 l 231 553 l 601 553 l 601 596 l 490 707 l 181 707 l 69 596 l 69 111 l 181 0 l 490 0 l 601 111 z "},"d":{"ha":678,"x_min":69,"x_max":608,"o":"m 451 78 l 572 0 l 608 0 l 608 943 l 576 943 l 451 894 l 451 78 m 411 154 l 231 154 l 231 553 l 411 553 l 411 663 l 367 707 l 181 707 l 69 596 l 69 111 l 181 0 l 367 0 l 411 44 l 411 154 z "},"e":{"ha":685,"x_min":69,"x_max":622,"o":"m 367 0 l 511 0 l 622 111 l 622 147 l 367 147 l 367 0 m 328 421 l 231 421 l 231 553 l 329 553 l 329 707 l 181 707 l 69 596 l 69 111 l 181 0 l 326 0 l 328 147 l 231 147 l 231 274 l 328 274 l 328 421 m 367 553 l 461 553 l 461 421 l 367 421 l 367 274 l 511 274 l 622 385 l 622 596 l 511 707 l 367 707 l 367 553 z "},"f":{"ha":432,"x_min":21,"x_max":390,"o":"m 90 833 l 90 707 l 21 707 l 21 553 l 90 553 l 90 0 l 251 0 l 251 553 l 390 553 l 390 707 l 251 707 l 251 790 l 390 790 l 390 944 l 201 944 l 90 833 z "},"g":{"ha":692,"x_min":69,"x_max":622,"o":"m 310 -74 l 76 -74 l 76 -110 l 188 -221 l 310 -221 l 310 -74 m 311 221 l 231 221 l 231 553 l 313 553 l 313 707 l 181 707 l 69 596 l 69 181 l 181 69 l 311 69 l 311 221 m 349 553 l 461 553 l 461 221 l 349 221 l 349 69 l 381 69 l 461 150 l 461 -74 l 349 -74 l 349 -221 l 511 -221 l 622 -110 l 622 707 l 589 707 l 461 626 l 381 707 l 349 707 l 349 553 z "},"h":{"ha":678,"x_min":69,"x_max":608,"o":"m 608 596 l 497 707 l 311 707 l 231 626 l 231 944 l 200 943 l 69 894 l 71 0 l 231 0 l 231 553 l 447 553 l 447 0 l 608 0 l 608 596 z "},"i":{"ha":300,"x_min":69,"x_max":231,"o":"m 231 707 l 69 707 l 69 0 l 231 0 l 231 707 m 231 778 l 231 944 l 69 944 l 69 778 l 231 778 z "},"j":{"ha":300,"x_min":0,"x_max":231,"o":"m 231 -112 l 231 707 l 69 707 l 69 -69 l 0 -69 l 0 -224 l 119 -224 l 231 -112 m 231 778 l 231 944 l 69 944 l 69 778 l 231 778 z "},"k":{"ha":735,"x_min":69,"x_max":735,"o":"m 735 1 l 503 464 l 735 707 l 539 707 l 229 385 l 229 944 l 200 942 l 69 892 l 69 0 l 229 0 l 229 186 l 383 340 l 561 1 l 735 1 z "},"l":{"ha":301,"x_min":69,"x_max":232,"o":"m 232 944 l 200 942 l 69 890 l 69 0 l 232 0 l 232 944 z "},"m":{"ha":1014,"x_min":69,"x_max":944,"o":"m 944 596 l 833 707 l 668 707 l 572 611 l 476 707 l 311 707 l 231 626 l 106 707 l 69 707 l 69 0 l 232 0 l 231 553 l 426 553 l 426 0 l 588 0 l 588 553 l 783 553 l 783 0 l 944 0 l 944 596 z "},"n":{"ha":678,"x_min":69,"x_max":608,"o":"m 608 596 l 497 707 l 311 707 l 231 626 l 106 707 l 69 707 l 69 0 l 231 0 l 231 553 l 447 553 l 447 0 l 608 0 l 608 596 z "},"o":{"ha":692,"x_min":69,"x_max":622,"o":"m 324 154 l 231 154 l 231 553 l 324 553 l 324 707 l 181 707 l 69 596 l 69 111 l 181 0 l 324 0 l 324 154 m 367 553 l 461 553 l 461 154 l 367 154 l 367 0 l 511 0 l 622 111 l 622 596 l 511 707 l 367 707 l 367 553 z "},"p":{"ha":678,"x_min":69,"x_max":608,"o":"m 232 154 l 231 154 l 231 553 l 232 553 l 232 628 l 231 626 l 106 707 l 69 707 l 71 -222 l 231 -222 l 231 81 l 232 79 l 232 154 m 278 553 l 447 553 l 447 154 l 278 154 l 278 33 l 311 0 l 497 0 l 608 111 l 608 596 l 497 707 l 311 707 l 278 674 l 278 553 z "},"q":{"ha":678,"x_min":69,"x_max":608,"o":"m 457 -222 l 608 -222 l 608 707 l 572 707 l 457 633 l 457 -222 m 408 154 l 231 154 l 231 553 l 408 553 l 408 665 l 367 707 l 181 707 l 69 596 l 69 111 l 181 0 l 367 0 l 408 42 l 408 154 z "},"r":{"ha":535,"x_min":69,"x_max":521,"o":"m 521 626 l 440 707 l 311 707 l 231 626 l 106 707 l 69 707 l 71 0 l 231 0 l 231 553 l 521 553 l 521 626 z "},"s":{"ha":650,"x_min":69,"x_max":581,"o":"m 581 111 l 581 322 l 469 433 l 231 433 l 231 560 l 581 560 l 581 596 l 469 707 l 181 707 l 69 596 l 69 392 l 181 281 l 419 281 l 419 147 l 69 147 l 69 111 l 181 0 l 469 0 l 581 111 z "},"t":{"ha":429,"x_min":11,"x_max":408,"o":"m 408 553 l 408 707 l 256 707 l 256 944 l 221 944 l 94 882 l 94 707 l 11 589 l 11 553 l 94 553 l 94 111 l 206 0 l 406 0 l 406 154 l 256 154 l 256 553 l 408 553 z "},"u":{"ha":678,"x_min":69,"x_max":608,"o":"m 608 707 l 447 707 l 447 154 l 231 154 l 231 707 l 69 707 l 69 111 l 181 0 l 367 0 l 447 81 l 572 0 l 608 0 l 608 707 z "},"v":{"ha":631,"x_min":0,"x_max":631,"o":"m 631 707 l 464 707 l 317 261 l 175 707 l 0 707 l 238 0 l 393 0 l 631 707 z "},"w":{"ha":835,"x_min":0,"x_max":835,"o":"m 835 707 l 663 707 l 575 296 l 454 635 l 372 635 l 256 296 l 172 707 l 0 707 l 172 0 l 322 0 l 415 317 l 508 0 l 657 0 l 835 707 z "},"x":{"ha":635,"x_min":0,"x_max":636,"o":"m 636 0 l 421 357 l 635 707 l 467 707 l 321 458 l 182 707 l 7 707 l 222 357 l 0 0 l 169 0 l 321 256 l 478 0 l 636 0 z "},"y":{"ha":649,"x_min":0,"x_max":649,"o":"m 649 707 l 478 707 l 335 286 l 172 707 l 0 707 l 254 69 l 156 -189 l 324 -189 l 649 707 z "},"z":{"ha":588,"x_min":35,"x_max":553,"o":"m 553 0 l 553 150 l 235 147 l 553 560 l 553 707 l 35 707 l 35 560 l 353 560 l 35 147 l 35 0 l 553 0 z "},"{":{"ha":449,"x_min":63,"x_max":400,"o":"m 400 -206 l 400 -58 l 300 -58 l 300 274 l 196 378 l 300 482 l 300 815 l 400 815 l 400 963 l 257 963 l 153 858 l 153 549 l 63 458 l 63 297 l 153 207 l 153 -101 l 257 -206 l 400 -206 z "},"|":{"ha":296,"x_min":83,"x_max":211,"o":"m 211 -206 l 211 1036 l 83 1036 l 83 -206 l 211 -206 z "},"}":{"ha":449,"x_min":63,"x_max":400,"o":"m 400 297 l 400 458 l 310 549 l 310 858 l 206 963 l 63 963 l 63 815 l 163 815 l 163 482 l 267 378 l 163 274 l 163 -58 l 63 -58 l 63 -206 l 206 -206 l 310 -101 l 310 207 l 400 297 z "},"~":{"ha":689,"x_min":82,"x_max":639,"o":"m 639 882 l 522 999 l 371 999 l 278 906 l 190 993 l 82 885 l 199 768 l 350 768 l 443 861 l 532 774 l 639 882 z "},"Ä":{"ha":657,"x_min":0,"x_max":657,"o":"m 575 950 l 575 1111 l 414 1111 l 414 950 l 575 950 m 253 950 l 253 1111 l 92 1111 l 92 950 l 253 950 m 657 0 l 401 889 l 254 889 l 0 0 l 161 0 l 217 218 l 439 218 l 501 0 l 657 0 m 396 364 l 258 364 l 328 631 l 396 364 z "},"Å":{"ha":657,"x_min":0,"x_max":657,"o":"m 657 0 l 401 889 l 254 889 l 0 0 l 161 0 l 217 218 l 439 218 l 501 0 l 657 0 m 396 364 l 258 364 l 328 631 l 396 364 m 468 944 l 468 1110 l 411 1165 l 246 1165 l 190 1110 l 190 944 l 247 889 l 413 889 l 468 944 m 386 969 l 271 969 l 271 1085 l 388 1085 l 386 969 z "},"Ç":{"ha":640,"x_min":69,"x_max":606,"o":"m 606 111 l 606 154 l 231 154 l 231 735 l 606 735 l 606 778 l 494 889 l 181 889 l 69 778 l 69 111 l 181 0 l 303 0 l 303 -115 l 383 -115 l 383 -196 l 303 -196 l 303 -149 l 222 -149 l 222 -221 l 278 -276 l 408 -276 l 464 -221 l 464 -90 l 408 -35 l 383 -35 l 383 0 l 494 0 l 606 111 z "},"É":{"ha":665,"x_min":69,"x_max":624,"o":"m 576 1036 l 535 1192 l 229 1068 l 260 951 l 576 1036 m 624 0 l 624 154 l 232 154 l 232 364 l 497 364 l 497 525 l 232 525 l 232 735 l 624 735 l 624 889 l 69 889 l 69 0 l 624 0 z "},"Ñ":{"ha":699,"x_min":69,"x_max":629,"o":"m 629 1047 l 508 1167 l 363 1167 l 267 1071 l 168 1169 l 69 1071 l 190 951 l 336 951 l 432 1047 l 531 949 l 629 1047 m 625 0 l 625 889 l 467 889 l 467 385 l 213 889 l 72 889 l 72 0 l 232 0 l 231 504 l 485 0 l 625 0 z "},"Ö":{"ha":692,"x_min":69,"x_max":622,"o":"m 588 950 l 588 1111 l 426 1111 l 426 950 l 588 950 m 265 950 l 265 1111 l 104 1111 l 104 950 l 265 950 m 622 111 l 622 778 l 511 889 l 181 889 l 69 778 l 69 111 l 181 0 l 511 0 l 622 111 m 461 154 l 231 154 l 231 735 l 461 735 l 461 154 z "},"Ü":{"ha":692,"x_min":69,"x_max":622,"o":"m 586 950 l 586 1111 l 425 1111 l 425 950 l 586 950 m 264 950 l 264 1111 l 103 1111 l 103 950 l 264 950 m 622 111 l 622 889 l 461 889 l 461 154 l 231 154 l 231 889 l 69 889 l 69 111 l 181 0 l 511 0 l 622 111 z "},"á":{"ha":678,"x_min":56,"x_max":608,"o":"m 521 853 l 479 1008 l 174 885 l 204 768 l 521 853 m 608 596 l 497 707 l 181 707 l 69 596 l 69 553 l 447 553 l 447 428 l 181 428 l 56 303 l 56 111 l 167 0 l 367 0 l 447 81 l 572 0 l 608 0 l 608 596 m 447 147 l 217 147 l 217 281 l 447 281 l 447 147 z "},"à":{"ha":678,"x_min":56,"x_max":608,"o":"m 500 885 l 194 1008 l 153 853 l 469 768 l 500 885 m 608 596 l 497 707 l 181 707 l 69 596 l 69 553 l 447 553 l 447 428 l 181 428 l 56 303 l 56 111 l 167 0 l 367 0 l 447 81 l 572 0 l 608 0 l 608 596 m 447 147 l 217 147 l 217 281 l 447 281 l 447 147 z "},"â":{"ha":678,"x_min":56,"x_max":608,"o":"m 567 847 l 419 994 l 258 994 l 111 847 l 189 769 l 339 861 l 489 769 l 567 847 m 608 596 l 497 707 l 181 707 l 69 596 l 69 553 l 447 553 l 447 428 l 181 428 l 56 303 l 56 111 l 167 0 l 367 0 l 447 81 l 572 0 l 608 0 l 608 596 m 447 147 l 217 147 l 217 281 l 447 281 l 447 147 z "},"ä":{"ha":678,"x_min":56,"x_max":608,"o":"m 574 790 l 574 951 l 413 951 l 413 790 l 574 790 m 251 790 l 251 951 l 90 951 l 90 790 l 251 790 m 608 596 l 497 707 l 181 707 l 69 596 l 69 553 l 447 553 l 447 428 l 181 428 l 56 303 l 56 111 l 167 0 l 367 0 l 447 81 l 572 0 l 608 0 l 608 596 m 447 147 l 217 147 l 217 281 l 447 281 l 447 147 z "},"ã":{"ha":685,"x_min":56,"x_max":615,"o":"m 615 878 l 494 999 l 349 999 l 253 901 l 154 1001 l 56 903 l 176 782 l 322 782 l 418 878 l 517 779 l 615 878 m 608 596 l 497 707 l 181 707 l 69 596 l 69 553 l 447 553 l 447 428 l 181 428 l 56 303 l 56 111 l 167 0 l 367 0 l 447 81 l 572 0 l 608 0 l 608 596 m 447 147 l 217 147 l 217 281 l 447 281 l 447 147 z "},"å":{"ha":678,"x_min":56,"x_max":608,"o":"m 474 824 l 474 989 l 418 1044 l 253 1044 l 197 989 l 197 824 l 253 768 l 418 768 l 474 824 m 393 849 l 278 849 l 278 964 l 393 964 l 393 849 m 608 596 l 497 707 l 181 707 l 69 596 l 69 553 l 447 553 l 447 428 l 181 428 l 56 303 l 56 111 l 167 0 l 367 0 l 447 81 l 572 0 l 608 0 l 608 596 m 447 147 l 217 147 l 217 281 l 447 281 l 447 147 z "},"ç":{"ha":657,"x_min":69,"x_max":622,"o":"m 622 111 l 622 154 l 231 154 l 231 553 l 622 553 l 622 596 l 511 707 l 181 707 l 69 596 l 69 111 l 181 0 l 300 0 l 300 -117 l 381 -117 l 381 -197 l 300 -197 l 300 -150 l 219 -150 l 219 -222 l 275 -278 l 406 -278 l 461 -222 l 461 -92 l 406 -36 l 381 -36 l 381 0 l 511 0 l 622 111 z "},"é":{"ha":685,"x_min":69,"x_max":622,"o":"m 549 853 l 507 1008 l 201 885 l 232 768 l 549 853 m 622 111 l 622 147 l 231 147 l 231 274 l 511 274 l 622 385 l 622 596 l 511 707 l 181 707 l 69 596 l 69 111 l 181 0 l 511 0 l 622 111 m 461 421 l 231 421 l 231 553 l 461 553 l 461 421 z "},"è":{"ha":685,"x_min":69,"x_max":622,"o":"m 549 885 l 243 1008 l 201 853 l 518 768 l 549 885 m 622 111 l 622 147 l 231 147 l 231 274 l 511 274 l 622 385 l 622 596 l 511 707 l 181 707 l 69 596 l 69 111 l 181 0 l 511 0 l 622 111 m 461 421 l 231 421 l 231 553 l 461 553 l 461 421 z "},"ê":{"ha":685,"x_min":69,"x_max":622,"o":"m 569 847 l 422 994 l 261 994 l 114 847 l 192 769 l 342 861 l 492 769 l 569 847 m 622 111 l 622 147 l 231 147 l 231 274 l 511 274 l 622 385 l 622 596 l 511 707 l 181 707 l 69 596 l 69 111 l 181 0 l 511 0 l 622 111 m 461 421 l 231 421 l 231 553 l 461 553 l 461 421 z "},"ë":{"ha":685,"x_min":69,"x_max":622,"o":"m 585 790 l 585 951 l 424 951 l 424 790 l 585 790 m 263 790 l 263 951 l 101 951 l 101 790 l 263 790 m 622 111 l 622 147 l 231 147 l 231 274 l 511 274 l 622 385 l 622 596 l 511 707 l 181 707 l 69 596 l 69 111 l 181 0 l 511 0 l 622 111 m 461 421 l 231 421 l 231 553 l 461 553 l 461 421 z "},"í":{"ha":300,"x_min":-33,"x_max":314,"o":"m 314 853 l 272 1008 l -33 885 l -3 768 l 314 853 m 231 707 l 69 707 l 69 0 l 231 0 l 231 707 z "},"ì":{"ha":300,"x_min":-28,"x_max":319,"o":"m 319 885 l 14 1008 l -28 853 l 289 768 l 319 885 m 231 707 l 69 707 l 69 0 l 231 0 l 231 707 z "},"î":{"ha":300,"x_min":-78,"x_max":378,"o":"m 378 847 l 231 994 l 69 994 l -78 847 l 0 769 l 150 861 l 300 769 l 378 847 m 231 707 l 69 707 l 69 0 l 231 0 l 231 707 z "},"ï":{"ha":300,"x_min":-58,"x_max":363,"o":"m 363 790 l 363 951 l 201 951 l 201 790 l 363 790 m 103 790 l 103 951 l -58 951 l -58 790 l 103 790 m 231 707 l 69 707 l 69 0 l 231 0 l 231 707 z "},"ñ":{"ha":678,"x_min":65,"x_max":625,"o":"m 625 878 l 504 997 l 358 997 l 263 901 l 164 1000 l 65 901 l 186 782 l 332 782 l 428 878 l 526 779 l 625 878 m 608 596 l 497 707 l 311 707 l 231 626 l 106 707 l 69 707 l 69 0 l 231 0 l 231 553 l 447 553 l 447 0 l 608 0 l 608 596 z "},"ó":{"ha":692,"x_min":69,"x_max":622,"o":"m 535 853 l 493 1008 l 188 885 l 218 768 l 535 853 m 622 111 l 622 596 l 511 707 l 181 707 l 69 596 l 69 111 l 181 0 l 511 0 l 622 111 m 461 154 l 231 154 l 231 553 l 461 553 l 461 154 z "},"ò":{"ha":692,"x_min":69,"x_max":622,"o":"m 535 885 l 229 1008 l 188 853 l 504 768 l 535 885 m 622 111 l 622 596 l 511 707 l 181 707 l 69 596 l 69 111 l 181 0 l 511 0 l 622 111 m 461 154 l 231 154 l 231 553 l 461 553 l 461 154 z "},"ô":{"ha":692,"x_min":69,"x_max":622,"o":"m 574 847 l 426 994 l 265 994 l 118 847 l 196 769 l 346 861 l 496 769 l 574 847 m 622 111 l 622 596 l 511 707 l 181 707 l 69 596 l 69 111 l 181 0 l 511 0 l 622 111 m 461 154 l 231 154 l 231 553 l 461 553 l 461 154 z "},"ö":{"ha":692,"x_min":69,"x_max":622,"o":"m 588 790 l 588 951 l 426 951 l 426 790 l 588 790 m 265 790 l 265 951 l 104 951 l 104 790 l 265 790 m 622 111 l 622 596 l 511 707 l 181 707 l 69 596 l 69 111 l 181 0 l 511 0 l 622 111 m 461 154 l 231 154 l 231 553 l 461 553 l 461 154 z "},"õ":{"ha":692,"x_min":69,"x_max":629,"o":"m 629 878 l 508 997 l 363 997 l 267 901 l 168 1000 l 69 903 l 190 782 l 336 782 l 432 878 l 531 779 l 629 878 m 625 111 l 625 596 l 514 707 l 183 707 l 72 596 l 72 111 l 183 0 l 514 0 l 625 111 m 464 154 l 233 154 l 233 553 l 464 553 l 464 154 z "},"ú":{"ha":678,"x_min":69,"x_max":608,"o":"m 556 853 l 514 1008 l 208 885 l 239 768 l 556 853 m 608 707 l 447 707 l 447 154 l 231 154 l 231 707 l 69 707 l 69 111 l 181 0 l 367 0 l 447 81 l 572 0 l 608 0 l 608 707 z "},"ù":{"ha":678,"x_min":69,"x_max":608,"o":"m 521 885 l 215 1008 l 174 853 l 490 768 l 521 885 m 608 707 l 447 707 l 447 154 l 231 154 l 231 707 l 69 707 l 69 111 l 181 0 l 367 0 l 447 81 l 572 0 l 608 0 l 608 707 z "},"û":{"ha":678,"x_min":69,"x_max":608,"o":"m 571 847 l 424 994 l 263 994 l 115 847 l 193 769 l 343 861 l 493 769 l 571 847 m 608 707 l 447 707 l 447 154 l 231 154 l 231 707 l 69 707 l 69 111 l 181 0 l 367 0 l 447 81 l 572 0 l 608 0 l 608 707 z "},"ü":{"ha":678,"x_min":69,"x_max":608,"o":"m 583 790 l 583 951 l 422 951 l 422 790 l 583 790 m 261 790 l 261 951 l 100 951 l 100 790 l 261 790 m 608 707 l 447 707 l 447 154 l 231 154 l 231 707 l 69 707 l 69 111 l 181 0 l 367 0 l 447 81 l 572 0 l 608 0 l 608 707 z "},"†":{"ha":575,"x_min":83,"x_max":492,"o":"m 492 775 l 492 889 l 344 889 l 344 1036 l 231 1036 l 231 889 l 83 889 l 83 775 l 231 775 l 231 456 l 344 456 l 344 775 l 492 775 z "},"°":{"ha":443,"x_min":83,"x_max":360,"o":"m 360 622 l 360 833 l 304 889 l 139 889 l 83 833 l 83 622 l 139 567 l 304 567 l 360 622 m 279 647 l 164 647 l 164 808 l 279 808 l 279 647 z "},"¢":{"ha":660,"x_min":63,"x_max":615,"o":"m 615 218 l 615 261 l 224 261 l 224 608 l 615 608 l 615 651 l 504 763 l 401 763 l 401 889 l 279 889 l 279 763 l 174 763 l 63 651 l 63 218 l 174 107 l 279 107 l 279 1 l 401 1 l 401 107 l 504 107 l 615 218 z "},"§":{"ha":692,"x_min":69,"x_max":622,"o":"m 622 -6 l 622 217 l 567 272 l 622 328 l 622 494 l 511 606 l 231 606 l 231 728 l 622 728 l 622 778 l 511 889 l 181 889 l 69 778 l 69 550 l 125 494 l 69 439 l 69 272 l 181 161 l 461 161 l 461 44 l 69 44 l 69 -6 l 181 -117 l 511 -117 l 622 -6 m 461 315 l 231 315 l 231 446 l 461 446 l 461 315 z "},"•":{"ha":492,"x_min":83,"x_max":408,"o":"m 408 228 l 408 553 l 83 553 l 83 228 l 408 228 z "},"¶":{"ha":649,"x_min":83,"x_max":561,"o":"m 561 -222 l 561 889 l 194 889 l 83 778 l 83 457 l 194 346 l 433 346 l 433 -222 l 561 -222 z "},"ß":{"ha":692,"x_min":69,"x_max":622,"o":"m 622 111 l 622 385 l 553 454 l 622 524 l 622 778 l 511 889 l 181 889 l 69 778 l 69 0 l 231 0 l 231 735 l 461 735 l 461 532 l 342 532 l 342 376 l 461 376 l 461 154 l 342 154 l 342 0 l 511 0 l 622 111 z "},"´":{"ha":564,"x_min":154,"x_max":501,"o":"m 501 978 l 460 1133 l 154 1010 l 185 893 l 501 978 z "},"¨":{"ha":697,"x_min":118,"x_max":601,"o":"m 601 950 l 601 1111 l 440 1111 l 440 950 l 601 950 m 279 950 l 279 1111 l 118 1111 l 118 950 l 279 950 z "},"Æ":{"ha":1028,"x_min":44,"x_max":971,"o":"m 664 522 l 664 735 l 971 735 l 971 889 l 435 889 l 44 0 l 221 0 l 314 218 l 510 218 l 508 0 l 971 0 l 971 154 l 664 154 l 664 367 l 865 367 l 865 522 l 664 522 m 510 364 l 376 364 l 510 690 l 510 364 z "},"Ø":{"ha":814,"x_min":69,"x_max":744,"o":"m 744 867 l 678 911 l 626 835 l 572 889 l 242 889 l 131 778 l 131 113 l 69 22 l 136 -22 l 188 54 l 242 0 l 572 0 l 683 111 l 683 776 l 744 867 m 522 685 l 292 347 l 292 735 l 522 735 l 522 685 m 522 154 l 292 154 l 292 204 l 522 542 l 522 154 z "},"±":{"ha":678,"x_min":83,"x_max":594,"o":"m 594 392 l 594 553 l 419 553 l 419 726 l 258 726 l 258 553 l 83 553 l 83 392 l 258 392 l 258 217 l 419 217 l 419 392 l 594 392 m 594 0 l 594 154 l 83 154 l 83 0 l 594 0 z "},"¥":{"ha":663,"x_min":0,"x_max":663,"o":"m 663 889 l 479 889 l 336 538 l 188 889 l 0 889 l 176 525 l 54 525 l 54 444 l 215 444 l 254 364 l 54 364 l 54 283 l 254 283 l 256 0 l 415 0 l 415 283 l 615 283 l 615 364 l 415 364 l 454 444 l 615 444 l 615 525 l 490 525 l 663 889 z "},"æ":{"ha":979,"x_min":56,"x_max":917,"o":"m 917 111 l 917 147 l 567 147 l 567 274 l 806 274 l 917 385 l 917 596 l 806 707 l 556 707 l 486 638 l 417 707 l 181 707 l 69 596 l 69 553 l 406 553 l 406 428 l 181 428 l 56 303 l 56 111 l 167 0 l 417 0 l 486 69 l 556 0 l 806 0 l 917 111 m 406 147 l 217 147 l 217 281 l 406 281 l 406 147 m 756 421 l 567 421 l 567 553 l 756 553 l 756 421 z "},"ø":{"ha":692,"x_min":-8,"x_max":699,"o":"m 699 679 l 640 735 l 564 653 l 510 707 l 179 707 l 68 596 l 68 111 l -8 28 l 50 -28 l 125 54 l 179 0 l 510 0 l 621 111 l 621 594 l 699 679 m 460 538 l 229 286 l 229 553 l 460 553 l 460 538 m 460 154 l 229 154 l 229 168 l 460 419 l 460 154 z "},"¿":{"ha":578,"x_min":83,"x_max":636,"o":"m 636 -71 l 636 -21 l 244 -21 l 244 182 l 364 182 l 475 293 l 475 453 l 314 453 l 314 343 l 194 343 l 83 232 l 83 -71 l 194 -182 l 525 -182 l 636 -71 m 478 540 l 478 707 l 311 707 l 311 540 l 478 540 z "},"¡":{"ha":328,"x_min":56,"x_max":272,"o":"m 247 539 l 247 706 l 81 706 l 81 539 l 247 539 m 272 -183 l 225 451 l 104 451 l 56 -183 l 272 -183 z "},"ƒ":{"ha":389,"x_min":0,"x_max":389,"o":"m 389 783 l 389 944 l 222 944 l 111 833 l 111 553 l 42 553 l 42 392 l 111 392 l 111 -61 l 0 -61 l 0 -222 l 161 -222 l 272 -111 l 272 392 l 342 392 l 342 553 l 272 553 l 272 783 l 389 783 z "},"«":{"ha":831,"x_min":56,"x_max":775,"o":"m 775 226 l 585 417 l 775 607 l 675 707 l 385 417 l 675 126 l 775 226 m 446 226 l 256 417 l 446 607 l 346 707 l 56 417 l 346 126 l 446 226 z "},"»":{"ha":831,"x_min":56,"x_max":775,"o":"m 775 417 l 485 707 l 385 607 l 575 417 l 385 226 l 485 126 l 775 417 m 446 417 l 156 707 l 56 607 l 246 417 l 56 226 l 156 126 l 446 417 z "},"…":{"ha":972,"x_min":81,"x_max":914,"o":"m 914 0 l 914 167 l 747 167 l 747 0 l 914 0 m 581 0 l 581 167 l 414 167 l 414 0 l 581 0 m 247 0 l 247 167 l 81 167 l 81 0 l 247 0 z "},"À":{"ha":657,"x_min":0,"x_max":657,"o":"m 493 1068 l 188 1192 l 146 1036 l 463 951 l 493 1068 m 657 0 l 401 889 l 254 889 l 0 0 l 161 0 l 217 218 l 439 218 l 501 0 l 657 0 m 396 364 l 258 364 l 328 631 l 396 364 z "},"Ã":{"ha":657,"x_min":0,"x_max":657,"o":"m 593 1047 l 472 1167 l 326 1167 l 231 1071 l 132 1169 l 33 1071 l 154 951 l 300 951 l 396 1047 l 494 949 l 593 1047 m 657 0 l 401 889 l 254 889 l 0 0 l 161 0 l 217 218 l 439 218 l 501 0 l 657 0 m 396 364 l 258 364 l 328 631 l 396 364 z "},"Õ":{"ha":704,"x_min":69,"x_max":635,"o":"m 629 1047 l 508 1167 l 363 1167 l 267 1071 l 168 1169 l 69 1071 l 190 951 l 336 951 l 432 1047 l 531 949 l 629 1047 m 635 111 l 635 778 l 524 889 l 193 889 l 82 778 l 82 111 l 193 0 l 524 0 l 635 111 m 474 154 l 243 154 l 243 735 l 474 735 l 474 154 z "},"Œ":{"ha":1000,"x_min":69,"x_max":958,"o":"m 636 522 l 636 735 l 958 735 l 958 889 l 586 889 l 517 819 l 447 889 l 181 889 l 69 778 l 69 111 l 181 0 l 447 0 l 517 69 l 586 0 l 958 0 l 958 154 l 636 154 l 636 367 l 860 367 l 860 522 l 636 522 m 419 154 l 231 154 l 231 735 l 419 735 l 419 154 z "},"œ":{"ha":993,"x_min":69,"x_max":931,"o":"m 931 111 l 931 154 l 581 154 l 581 281 l 819 281 l 931 392 l 931 596 l 819 707 l 569 707 l 500 638 l 431 707 l 181 707 l 69 596 l 69 111 l 181 0 l 431 0 l 500 69 l 569 0 l 819 0 l 931 111 m 419 154 l 231 154 l 231 553 l 419 553 l 419 154 m 769 421 l 581 421 l 581 553 l 769 553 l 769 421 z "},"–":{"ha":590,"x_min":35,"x_max":556,"o":"m 556 329 l 556 476 l 35 476 l 35 329 l 556 329 z "},"—":{"ha":799,"x_min":35,"x_max":764,"o":"m 764 329 l 764 476 l 35 476 l 35 329 l 764 329 z "},"“":{"ha":551,"x_min":69,"x_max":482,"o":"m 482 511 l 482 889 l 293 889 l 390 511 l 482 511 m 258 511 l 258 889 l 69 889 l 167 511 l 258 511 z "},"”":{"ha":551,"x_min":69,"x_max":482,"o":"m 482 889 l 293 889 l 293 511 l 385 511 l 482 889 m 258 889 l 69 889 l 69 511 l 161 511 l 258 889 z "},"‘":{"ha":328,"x_min":69,"x_max":258,"o":"m 258 511 l 258 889 l 69 889 l 167 511 l 258 511 z "},"’":{"ha":328,"x_min":69,"x_max":258,"o":"m 258 889 l 69 889 l 69 511 l 161 511 l 258 889 z "},"÷":{"ha":688,"x_min":49,"x_max":639,"o":"m 432 546 l 432 728 l 257 728 l 257 546 l 432 546 m 639 329 l 639 476 l 49 476 l 49 329 l 639 329 m 432 76 l 432 258 l 257 258 l 257 76 l 432 76 z "},"ÿ":{"ha":649,"x_min":0,"x_max":649,"o":"m 601 790 l 601 951 l 440 951 l 440 790 l 601 790 m 279 790 l 279 951 l 118 951 l 118 790 l 279 790 m 649 707 l 478 707 l 335 286 l 172 707 l 0 707 l 254 69 l 156 -189 l 324 -189 l 649 707 z "},"Ÿ":{"ha":663,"x_min":0,"x_max":663,"o":"m 604 950 l 604 1111 l 443 1111 l 443 950 l 604 950 m 282 950 l 282 1111 l 121 1111 l 121 950 l 282 950 m 663 889 l 479 889 l 336 538 l 188 889 l 0 889 l 254 364 l 256 0 l 415 0 l 415 364 l 663 889 z "},"⁄":{"ha":794,"x_min":103,"x_max":711,"o":"m 711 872 l 624 922 l 103 15 l 190 -35 l 711 872 z "},"∕":{"ha":794,"x_min":103,"x_max":711,"o":"m 711 872 l 624 922 l 103 15 l 190 -35 l 711 872 z "},"¤":{"ha":675,"x_min":0,"x_max":636,"o":"m 636 111 l 636 154 l 244 154 l 244 306 l 533 306 l 533 386 l 244 386 l 244 494 l 533 494 l 533 575 l 244 575 l 244 735 l 636 735 l 636 778 l 525 889 l 194 889 l 83 778 l 83 575 l 0 575 l 0 494 l 83 494 l 83 386 l 0 386 l 0 306 l 83 306 l 83 111 l 194 0 l 525 0 l 636 111 z "},"‹":{"ha":501,"x_min":56,"x_max":446,"o":"m 446 224 l 256 414 l 446 604 l 346 704 l 56 414 l 346 124 l 446 224 z "},"›":{"ha":501,"x_min":56,"x_max":446,"o":"m 446 414 l 156 704 l 56 604 l 246 414 l 56 224 l 156 124 l 446 414 z "},"‡":{"ha":575,"x_min":83,"x_max":492,"o":"m 492 775 l 492 889 l 344 889 l 344 1036 l 231 1036 l 231 889 l 83 889 l 83 775 l 231 775 l 231 628 l 344 628 l 344 775 l 492 775 m 492 439 l 492 553 l 83 553 l 83 439 l 231 439 l 231 175 l 344 175 l 344 439 l 492 439 z "},"·":{"ha":342,"x_min":83,"x_max":258,"o":"m 258 371 l 258 553 l 83 553 l 83 371 l 258 371 z "},"∙":{"ha":342,"x_min":83,"x_max":258,"o":"m 258 371 l 258 553 l 83 553 l 83 371 l 258 371 z "},"‚":{"ha":328,"x_min":69,"x_max":258,"o":"m 258 182 l 69 182 l 69 -196 l 161 -196 l 258 182 z "},"„":{"ha":551,"x_min":69,"x_max":482,"o":"m 482 182 l 293 182 l 293 -196 l 385 -196 l 482 182 m 258 182 l 69 182 l 69 -196 l 161 -196 l 258 182 z "},"‰":{"ha":1349,"x_min":54,"x_max":1285,"o":"m 406 556 l 406 797 l 317 886 l 143 886 l 54 797 l 54 556 l 143 467 l 317 467 l 406 556 m 864 88 l 864 329 l 775 418 l 601 418 l 513 329 l 513 88 l 601 -1 l 775 -1 l 864 88 m 1285 88 l 1285 329 l 1196 418 l 1022 418 l 933 329 l 933 88 l 1022 -1 l 1196 -1 l 1285 88 m 1211 496 l 1211 601 l 535 601 l 535 600 l 150 196 l 226 131 l 575 496 l 1211 496 m 1157 121 l 1061 121 l 1061 296 l 1157 296 l 1157 121 m 278 589 l 182 589 l 182 764 l 278 764 l 278 589 m 736 121 l 640 121 l 640 296 l 736 296 l 736 121 z "},"Â":{"ha":657,"x_min":0,"x_max":657,"o":"m 560 1019 l 413 1167 l 251 1167 l 104 1019 l 182 942 l 332 1033 l 482 942 l 560 1019 m 657 0 l 401 889 l 254 889 l 0 0 l 161 0 l 217 218 l 439 218 l 501 0 l 657 0 m 396 364 l 258 364 l 328 631 l 396 364 z "},"Ê":{"ha":665,"x_min":69,"x_max":624,"o":"m 615 1019 l 468 1167 l 307 1167 l 160 1019 l 238 942 l 388 1033 l 538 942 l 615 1019 m 624 0 l 624 154 l 232 154 l 232 364 l 497 364 l 497 525 l 232 525 l 232 735 l 624 735 l 624 889 l 69 889 l 69 0 l 624 0 z "},"Á":{"ha":657,"x_min":0,"x_max":657,"o":"m 507 1036 l 465 1192 l 160 1068 l 190 951 l 507 1036 m 657 0 l 401 889 l 254 889 l 0 0 l 161 0 l 217 218 l 439 218 l 501 0 l 657 0 m 396 364 l 258 364 l 328 631 l 396 364 z "},"Ë":{"ha":665,"x_min":69,"x_max":624,"o":"m 601 950 l 601 1111 l 440 1111 l 440 950 l 601 950 m 279 950 l 279 1111 l 118 1111 l 118 950 l 279 950 m 624 0 l 624 154 l 232 154 l 232 364 l 497 364 l 497 525 l 232 525 l 232 735 l 624 735 l 624 889 l 69 889 l 69 0 l 624 0 z "},"È":{"ha":665,"x_min":69,"x_max":624,"o":"m 576 1068 l 271 1192 l 229 1036 l 546 951 l 576 1068 m 624 0 l 624 154 l 232 154 l 232 364 l 497 364 l 497 525 l 232 525 l 232 735 l 624 735 l 624 889 l 69 889 l 69 0 l 624 0 z "},"Í":{"ha":300,"x_min":-26,"x_max":321,"o":"m 321 1036 l 279 1192 l -26 1068 l 4 951 l 321 1036 m 231 889 l 69 889 l 69 0 l 231 0 l 231 889 z "},"Î":{"ha":300,"x_min":-82,"x_max":374,"o":"m 374 1019 l 225 1167 l 65 1167 l -82 1019 l -4 942 l 146 1033 l 294 942 l 374 1019 m 231 889 l 69 889 l 69 0 l 231 0 l 231 889 z "},"Ï":{"ha":300,"x_min":-93,"x_max":390,"o":"m 390 950 l 390 1111 l 229 1111 l 229 950 l 390 950 m 68 950 l 68 1111 l -93 1111 l -93 950 l 68 950 m 231 889 l 69 889 l 69 0 l 231 0 l 231 889 z "},"Ì":{"ha":300,"x_min":8,"x_max":356,"o":"m 356 1068 l 50 1192 l 8 1036 l 325 951 l 356 1068 m 231 889 l 69 889 l 69 0 l 231 0 l 231 889 z "},"Ó":{"ha":692,"x_min":69,"x_max":622,"o":"m 497 1036 l 456 1192 l 150 1068 l 181 951 l 497 1036 m 622 111 l 622 778 l 511 889 l 181 889 l 69 778 l 69 111 l 181 0 l 511 0 l 622 111 m 461 154 l 231 154 l 231 735 l 461 735 l 461 154 z "},"Ô":{"ha":692,"x_min":69,"x_max":622,"o":"m 576 1019 l 429 1167 l 268 1167 l 121 1019 l 199 942 l 349 1033 l 499 942 l 576 1019 m 622 111 l 622 778 l 511 889 l 181 889 l 69 778 l 69 111 l 181 0 l 511 0 l 622 111 m 461 154 l 231 154 l 231 735 l 461 735 l 461 154 z "},"Ò":{"ha":692,"x_min":69,"x_max":622,"o":"m 535 1068 l 229 1192 l 188 1036 l 504 951 l 535 1068 m 622 111 l 622 778 l 511 889 l 181 889 l 69 778 l 69 111 l 181 0 l 511 0 l 622 111 m 461 154 l 231 154 l 231 735 l 461 735 l 461 154 z "},"Ú":{"ha":692,"x_min":69,"x_max":622,"o":"m 557 1036 l 515 1192 l 210 1068 l 240 951 l 557 1036 m 622 111 l 622 889 l 461 889 l 461 154 l 231 154 l 231 889 l 69 889 l 69 111 l 181 0 l 511 0 l 622 111 z "},"Û":{"ha":692,"x_min":69,"x_max":622,"o":"m 572 1019 l 425 1167 l 264 1167 l 117 1019 l 194 942 l 344 1033 l 494 942 l 572 1019 m 622 111 l 622 889 l 461 889 l 461 154 l 231 154 l 231 889 l 69 889 l 69 111 l 181 0 l 511 0 l 622 111 z "},"Ù":{"ha":692,"x_min":69,"x_max":622,"o":"m 479 1068 l 174 1192 l 132 1036 l 449 951 l 479 1068 m 622 111 l 622 889 l 461 889 l 461 154 l 231 154 l 231 889 l 69 889 l 69 111 l 181 0 l 511 0 l 622 111 z "},"ˆ":{"ha":708,"x_min":126,"x_max":582,"o":"m 582 1019 l 435 1167 l 274 1167 l 126 1019 l 204 942 l 354 1033 l 504 942 l 582 1019 z "},"˜":{"ha":708,"x_min":75,"x_max":633,"o":"m 633 1047 l 514 1167 l 368 1167 l 272 1071 l 174 1169 l 75 1071 l 194 951 l 340 951 l 436 1047 l 535 949 l 633 1047 z "},"¯":{"ha":708,"x_min":179,"x_max":529,"o":"m 529 950 l 529 1111 l 179 1111 l 179 950 l 529 950 z "},"ˉ":{"ha":708,"x_min":179,"x_max":529,"o":"m 529 950 l 529 1111 l 179 1111 l 179 950 l 529 950 z "},"˘":{"ha":708,"x_min":99,"x_max":610,"o":"m 610 975 l 522 1110 l 354 1021 l 186 1111 l 99 975 l 354 839 l 610 975 z "},"˙":{"ha":708,"x_min":274,"x_max":435,"o":"m 435 950 l 435 1111 l 274 1111 l 274 950 l 435 950 z "},"˚":{"ha":708,"x_min":215,"x_max":493,"o":"m 493 944 l 493 1110 l 436 1165 l 271 1165 l 215 1110 l 215 944 l 272 889 l 438 889 l 493 944 m 411 969 l 296 969 l 296 1085 l 413 1085 l 411 969 z "},"¸":{"ha":708,"x_min":233,"x_max":475,"o":"m 475 -222 l 475 -92 l 419 -36 l 394 -36 l 394 0 l 314 0 l 314 -112 l 394 -112 l 394 -201 l 314 -201 l 314 -150 l 233 -150 l 233 -222 l 289 -278 l 419 -278 l 475 -222 z "},"˝":{"ha":708,"x_min":108,"x_max":600,"o":"m 600 1167 l 424 1167 l 367 889 l 529 889 l 600 1167 m 340 1167 l 165 1167 l 108 889 l 271 889 l 340 1167 z "},"˛":{"ha":708,"x_min":431,"x_max":672,"o":"m 672 -242 l 672 -165 l 511 -165 l 511 -76 l 592 -76 l 592 0 l 486 0 l 431 -56 l 431 -186 l 486 -242 l 672 -242 z "},"ˇ":{"ha":708,"x_min":169,"x_max":539,"o":"m 539 1039 l 539 1167 l 429 1167 l 429 1106 l 354 1028 l 279 1106 l 279 1167 l 169 1167 l 169 1039 l 264 944 l 444 944 l 539 1039 z "},"ı":{"ha":300,"x_min":69,"x_max":231,"o":"m 231 707 l 69 707 l 69 0 l 231 0 l 231 707 z "},"£":{"ha":650,"x_min":1,"x_max":640,"o":"m 529 0 l 640 111 l 640 154 l 276 154 l 276 306 l 496 306 l 496 386 l 276 386 l 276 494 l 496 494 l 496 575 l 276 575 l 276 735 l 567 735 l 567 778 l 456 889 l 226 889 l 115 778 l 115 575 l 18 575 l 18 494 l 115 494 l 115 386 l 18 386 l 18 306 l 115 306 l 115 154 l 1 29 l 1 -1 l 529 0 z "},"&":{"ha":707,"x_min":69,"x_max":693,"o":"m 619 679 q 590 681 596 682 q 464 539 585 681 l 231 539 l 231 735 l 461 735 l 461 778 l 350 889 l 181 889 l 69 778 l 69 528 l 139 458 l 69 389 l 69 111 l 181 0 l 511 0 l 619 111 l 619 378 l 693 378 l 693 539 l 619 539 l 619 679 m 231 378 l 458 378 l 458 154 l 231 154 l 231 378 z "},"©":{"ha":1039,"x_min":69,"x_max":969,"o":"m 969 111 l 969 832 l 858 943 l 181 943 l 69 832 l 69 111 l 181 0 l 858 0 l 969 111 m 808 154 l 231 154 l 231 789 l 808 789 l 808 154 m 735 335 l 735 378 l 475 378 l 475 560 l 735 560 l 735 603 l 624 714 l 425 714 l 314 603 l 314 335 l 425 224 l 624 224 l 735 335 z "},"®":{"ha":765,"x_min":69,"x_max":696,"o":"m 696 365 l 696 865 l 618 943 l 147 943 l 69 865 l 69 365 l 147 288 l 618 288 l 696 365 m 583 394 l 182 394 l 182 836 l 583 836 l 583 394 m 507 443 l 464 538 l 532 606 l 532 725 l 464 793 l 254 793 l 254 439 l 353 439 l 353 538 l 358 538 l 399 443 l 507 443 m 433 636 l 353 636 l 353 699 l 433 699 l 433 636 z "},"™":{"ha":1157,"x_min":21,"x_max":1101,"o":"m 449 944 l 21 944 l 21 789 l 154 790 l 154 333 l 315 333 l 315 790 l 449 790 l 449 944 m 1101 949 l 954 949 l 804 658 l 654 949 l 507 949 l 507 335 l 664 335 l 664 647 l 792 482 l 817 482 l 946 647 l 946 335 l 1101 335 l 1101 949 z "},"@":{"ha":949,"x_min":-28,"x_max":879,"o":"m 718 -68 l -28 -67 l 104 -222 l 768 -222 l 879 -111 l 879 833 l 768 944 l 188 944 l 76 833 l 76 525 l 468 525 l 468 414 l 201 414 l 76 289 l 76 111 l 188 0 l 388 0 l 468 81 l 593 0 l 629 0 l 629 568 l 518 679 l 238 679 l 238 790 l 718 790 l 718 -68 m 468 147 l 238 147 l 238 267 l 468 267 l 468 147 z "},"ﬁ":{"ha":700,"x_min":21,"x_max":631,"o":"m 631 707 l 251 707 l 251 790 l 390 790 l 390 944 l 201 944 l 90 833 l 90 707 l 21 707 l 21 553 l 90 553 l 90 0 l 251 0 l 251 553 l 469 553 l 469 0 l 631 0 l 631 707 m 631 778 l 631 944 l 469 944 l 469 778 l 631 778 z "},"ﬂ":{"ha":704,"x_min":21,"x_max":635,"o":"m 635 944 l 201 944 l 90 833 l 90 707 l 21 707 l 21 553 l 90 553 l 90 0 l 251 0 l 251 553 l 390 553 l 390 707 l 251 707 l 251 790 l 472 790 l 472 0 l 635 0 l 635 944 z "},"ý":{"ha":649,"x_min":0,"x_max":649,"o":"m 550 854 l 508 1010 l 203 886 l 233 769 l 550 854 m 649 707 l 478 707 l 335 286 l 172 707 l 0 707 l 254 69 l 156 -189 l 324 -189 l 649 707 z "},"Þ":{"ha":692,"x_min":69,"x_max":622,"o":"m 622 222 l 622 735 l 511 846 l 311 846 l 231 765 l 231 946 l 69 946 l 69 0 l 231 0 l 231 192 l 311 111 l 511 111 l 622 222 m 461 265 l 231 265 l 231 692 l 461 692 l 461 265 z "},"þ":{"ha":692,"x_min":69,"x_max":622,"o":"m 622 111 l 622 596 l 511 707 l 311 707 l 231 626 l 231 943 l 69 889 l 69 -222 l 231 -222 l 231 81 l 311 0 l 511 0 l 622 111 m 461 154 l 231 154 l 231 553 l 461 553 l 461 154 z "},"Ž":{"ha":636,"x_min":42,"x_max":594,"o":"m 499 1039 l 499 1167 l 389 1167 l 389 1106 l 314 1028 l 239 1106 l 239 1167 l 129 1167 l 129 1039 l 224 944 l 404 944 l 499 1039 m 594 0 l 594 153 l 231 154 l 594 728 l 594 889 l 42 889 l 42 733 l 406 735 l 42 161 l 42 0 l 594 0 z "},"ž":{"ha":588,"x_min":35,"x_max":553,"o":"m 504 864 l 504 992 l 394 992 l 394 931 l 319 853 l 244 931 l 244 992 l 135 992 l 135 864 l 229 769 l 410 769 l 504 864 m 553 0 l 553 150 l 235 147 l 553 560 l 553 707 l 35 707 l 35 560 l 353 560 l 35 147 l 35 0 l 553 0 z "},"¦":{"ha":314,"x_min":83,"x_max":231,"o":"m 231 -222 l 231 308 l 83 308 l 83 -222 l 231 -222 m 231 469 l 231 943 l 83 943 l 83 469 l 231 469 z "},"−":{"ha":528,"x_min":56,"x_max":472,"o":"m 472 329 l 472 476 l 56 476 l 56 329 l 472 329 z "},"×":{"ha":640,"x_min":71,"x_max":571,"o":"m 571 263 l 428 404 l 571 546 l 463 654 l 321 513 l 179 654 l 71 546 l 213 404 l 71 263 l 178 154 l 321 296 l 463 154 l 571 263 z "},"ł":{"ha":369,"x_min":0,"x_max":369,"o":"m 267 944 l 104 890 l 104 510 l 0 486 l 0 367 l 104 389 l 104 0 l 267 0 l 267 425 l 369 447 l 369 567 l 267 544 l 267 944 z "},"€":{"ha":706,"x_min":0,"x_max":636,"o":"m 636 111 l 636 154 l 244 154 l 244 306 l 533 306 l 533 386 l 244 386 l 244 494 l 533 494 l 533 575 l 244 575 l 244 735 l 636 735 l 636 778 l 525 889 l 194 889 l 83 778 l 83 575 l 0 575 l 0 494 l 83 494 l 83 386 l 0 386 l 0 306 l 83 306 l 83 111 l 194 0 l 525 0 l 636 111 z "},"Ð":{"ha":719,"x_min":0,"x_max":636,"o":"m 636 111 l 636 778 l 525 889 l 83 889 l 83 511 l 0 511 l 0 411 l 83 411 l 83 0 l 525 0 l 636 111 m 475 154 l 244 154 l 244 411 l 385 411 l 385 511 l 244 511 l 244 735 l 475 735 l 475 154 z "},"ð":{"ha":706,"x_min":69,"x_max":636,"o":"m 636 875 l 579 932 l 471 824 l 389 906 l 161 906 l 161 750 l 335 750 l 365 718 l 301 654 l 358 597 l 422 661 l 461 622 l 461 497 l 406 553 l 181 553 l 69 442 l 69 111 l 181 0 l 511 0 l 622 111 l 622 672 l 528 767 l 636 875 m 461 154 l 231 154 l 231 399 l 461 399 l 461 154 z "},"Ł":{"ha":647,"x_min":14,"x_max":635,"o":"m 635 0 l 635 154 l 278 154 l 278 428 l 279 428 l 383 450 l 383 569 l 279 547 l 278 547 l 278 889 l 115 889 l 115 510 l 14 489 l 14 369 l 115 390 l 115 0 l 635 0 z "},"":{"ha":858,"x_min":69,"x_max":789,"o":"m 571 708 l 69 708 l 69 0 l 231 0 l 231 279 l 444 279 l 444 440 l 231 440 l 231 554 l 571 554 l 571 708 m 789 707 l 628 707 l 628 0 l 789 0 l 789 707 z "},"":{"ha":1079,"x_min":69,"x_max":1051,"o":"m 571 708 l 69 708 l 69 0 l 231 0 l 231 279 l 444 279 l 444 440 l 231 440 l 231 554 l 571 554 l 571 708 m 1051 0 l 1051 154 l 792 154 l 792 708 l 631 708 l 631 0 l 1051 0 z "},"":{"ha":553,"x_min":14,"x_max":540,"o":"m 540 0 l 540 154 l 281 154 l 281 332 l 383 354 l 383 474 l 281 451 l 281 708 l 119 708 l 119 417 l 118 417 l 14 393 l 14 274 l 118 296 l 119 296 l 119 0 l 540 0 z "},"":{"ha":588,"x_min":35,"x_max":553,"o":"m 553 0 l 553 150 l 235 147 l 553 560 l 553 707 l 35 707 l 35 560 l 353 560 l 35 147 l 35 0 l 553 0 m 504 864 l 504 992 l 394 992 l 394 931 l 319 853 l 244 931 l 244 992 l 135 992 l 135 864 l 229 769 l 410 769 l 504 864 z "},"":{"ha":328,"x_min":57,"x_max":274,"o":"m 274 710 l 57 710 l 103 254 l 224 254 l 274 710 m 247 0 l 247 167 l 81 167 l 81 0 l 247 0 z "},"":{"ha":650,"x_min":69,"x_max":525,"o":"m 525 165 l 525 321 l 414 432 l 231 432 l 231 517 l 525 517 l 525 553 l 414 664 l 358 664 l 358 722 l 236 721 l 236 664 l 181 664 l 69 553 l 69 390 l 181 279 l 364 279 l 364 201 l 69 201 l 69 165 l 181 54 l 236 54 l 236 -7 l 358 -7 l 358 54 l 414 54 l 525 165 z "},"":{"ha":707,"x_min":69,"x_max":611,"o":"m 564 568 q 535 570 540 571 q 408 428 529 569 l 231 428 l 231 554 l 406 554 l 406 597 l 294 708 l 181 708 l 69 597 l 69 417 l 139 347 l 69 278 l 69 111 l 181 0 l 456 0 l 564 111 l 564 267 l 611 267 l 611 428 l 564 428 l 564 568 m 231 267 l 403 267 l 403 154 l 231 154 l 231 267 z "},"":{"ha":692,"x_min":69,"x_max":622,"o":"m 321 154 l 231 154 l 231 551 l 321 551 l 321 706 l 181 706 l 69 594 l 69 111 l 181 0 l 321 0 l 321 154 m 367 551 l 461 551 l 461 154 l 367 154 l 367 0 l 511 0 l 622 111 l 622 594 l 511 706 l 367 706 l 367 551 z "},"":{"ha":335,"x_min":21,"x_max":265,"o":"m 265 708 l 101 708 l 21 628 l 21 582 l 104 582 l 104 0 l 265 0 l 265 708 z "},"":{"ha":589,"x_min":69,"x_max":519,"o":"m 519 0 l 519 154 l 233 154 l 233 199 l 519 422 l 519 597 l 408 708 l 181 708 l 69 597 l 69 553 l 358 554 l 358 494 l 72 271 l 72 0 l 519 0 z "},"":{"ha":588,"x_min":35,"x_max":518,"o":"m 518 111 l 518 282 l 449 351 l 518 421 l 518 597 l 407 708 l 146 708 l 35 597 l 35 554 l 357 554 l 357 432 l 158 432 l 158 271 l 357 271 l 357 154 l 35 154 l 35 111 l 146 0 l 407 0 l 518 111 z "},"":{"ha":617,"x_min":0,"x_max":596,"o":"m 381 0 l 531 0 l 531 124 l 596 124 l 596 281 l 531 281 l 531 708 l 381 708 l 381 0 m 338 281 l 199 281 l 338 436 l 338 665 l 0 261 l 96 124 l 338 124 l 338 281 z "},"":{"ha":636,"x_min":69,"x_max":567,"o":"m 567 111 l 567 324 l 456 435 l 231 435 l 231 554 l 567 554 l 567 708 l 69 708 l 69 385 l 181 274 l 406 274 l 406 154 l 69 154 l 69 111 l 181 0 l 456 0 l 567 111 z "},"":{"ha":650,"x_min":69,"x_max":581,"o":"m 346 553 l 581 553 l 581 596 l 469 707 l 346 707 l 346 553 m 304 154 l 231 154 l 231 279 l 304 279 l 304 440 l 231 440 l 231 553 l 304 553 l 304 707 l 181 707 l 69 596 l 69 111 l 181 0 l 304 0 l 304 154 m 346 279 l 419 279 l 419 154 l 346 154 l 346 0 l 469 0 l 581 111 l 581 329 l 469 440 l 346 440 l 346 279 z "},"":{"ha":465,"x_min":7,"x_max":451,"o":"m 451 526 l 451 708 l 7 708 l 7 554 l 293 554 l 36 0 l 203 0 l 451 526 z "},"":{"ha":650,"x_min":69,"x_max":581,"o":"m 304 154 l 231 154 l 231 276 l 304 276 l 304 432 l 231 432 l 231 554 l 304 554 l 304 708 l 181 708 l 69 597 l 69 424 l 139 354 l 69 285 l 69 111 l 181 0 l 304 0 l 304 154 m 351 276 l 419 276 l 419 154 l 351 154 l 351 0 l 469 0 l 581 111 l 581 285 l 511 354 l 581 424 l 581 597 l 469 708 l 351 708 l 351 554 l 419 554 l 419 432 l 351 432 l 351 276 z "},"":{"ha":650,"x_min":69,"x_max":581,"o":"m 304 153 l 69 153 l 69 110 l 181 -1 l 304 -1 l 304 153 m 346 551 l 419 551 l 419 426 l 346 426 l 346 265 l 419 265 l 419 153 l 346 153 l 346 -1 l 469 -1 l 581 110 l 581 594 l 469 706 l 346 706 l 346 551 m 304 426 l 231 426 l 231 551 l 304 551 l 304 706 l 181 706 l 69 594 l 69 376 l 181 265 l 304 265 l 304 426 z "},"":{"ha":557,"x_min":32,"x_max":501,"o":"m 501 406 l 501 594 l 390 706 l 143 706 l 32 594 l 32 550 l 340 551 l 340 456 l 221 456 l 110 344 l 110 240 l 271 240 l 271 294 l 390 294 l 501 406 m 274 0 l 274 167 l 107 167 l 107 0 l 274 0 z "},"":{"ha":558,"x_min":0,"x_max":558,"o":"m 207 708 l 0 0 l 147 0 l 335 708 l 207 708 m 321 285 l 267 285 l 229 139 l 364 139 l 403 0 l 558 0 l 364 674 l 294 396 l 321 285 z "},"":{"ha":692,"x_min":69,"x_max":622,"o":"m 221 706 l 69 706 l 69 0 l 221 0 l 221 706 m 264 283 l 461 283 l 461 154 l 264 154 l 264 0 l 511 0 l 622 111 l 622 290 l 553 360 l 622 429 l 622 594 l 511 706 l 264 706 l 264 551 l 461 551 l 461 436 l 264 436 l 264 283 z "},"":{"ha":636,"x_min":69,"x_max":601,"o":"m 601 111 l 601 154 l 231 154 l 231 553 l 601 553 l 601 596 l 490 707 l 181 707 l 69 596 l 69 111 l 181 0 l 490 0 l 601 111 z "},"":{"ha":693,"x_min":69,"x_max":624,"o":"m 224 706 l 69 706 l 69 0 l 224 0 l 224 706 m 286 551 l 463 551 l 463 154 l 286 154 l 286 0 l 513 0 l 624 111 l 624 594 l 513 706 l 286 706 l 286 551 z "},"":{"ha":619,"x_min":69,"x_max":578,"o":"m 578 0 l 578 154 l 231 154 l 231 274 l 444 274 l 444 435 l 231 435 l 231 554 l 571 554 l 571 708 l 69 708 l 69 0 l 578 0 z "},"":{"ha":592,"x_min":69,"x_max":571,"o":"m 571 708 l 69 708 l 69 0 l 231 0 l 231 279 l 444 279 l 444 440 l 231 440 l 231 554 l 571 554 l 571 708 z "},"":{"ha":678,"x_min":69,"x_max":608,"o":"m 608 597 l 497 708 l 181 708 l 69 597 l 69 111 l 181 0 l 376 0 l 454 78 l 574 0 l 608 0 l 608 344 l 454 344 l 454 164 l 231 164 l 231 554 l 608 554 l 608 597 z "},"":{"ha":693,"x_min":71,"x_max":624,"o":"m 624 708 l 463 708 l 463 432 l 232 432 l 232 708 l 71 708 l 71 0 l 232 0 l 232 271 l 463 271 l 463 0 l 624 0 l 624 708 z "},"":{"ha":300,"x_min":69,"x_max":231,"o":"m 231 707 l 69 707 l 69 0 l 231 0 l 231 707 z "},"":{"ha":539,"x_min":7,"x_max":469,"o":"m 469 111 l 469 708 l 308 708 l 308 154 l 7 154 l 7 111 l 118 0 l 358 0 l 469 111 z "},"":{"ha":688,"x_min":69,"x_max":688,"o":"m 688 0 l 451 438 l 654 707 l 465 707 l 231 386 l 231 707 l 69 707 l 69 0 l 231 0 l 231 147 l 333 293 l 493 0 l 688 0 z "},"":{"ha":518,"x_min":69,"x_max":490,"o":"m 490 0 l 490 154 l 231 154 l 231 708 l 69 708 l 69 0 l 490 0 z "},"":{"ha":760,"x_min":69,"x_max":690,"o":"m 690 710 l 543 710 l 381 381 l 217 710 l 69 710 l 69 0 l 226 0 l 226 397 l 340 135 l 421 135 l 533 397 l 535 0 l 690 0 l 690 710 z "},"":{"ha":650,"x_min":69,"x_max":581,"o":"m 581 0 l 581 707 l 422 707 l 422 328 l 210 707 l 69 707 l 69 0 l 228 0 l 228 378 l 440 0 l 581 0 z "},"":{"ha":692,"x_min":69,"x_max":622,"o":"m 329 154 l 231 154 l 231 553 l 329 553 l 329 707 l 181 707 l 69 596 l 69 111 l 181 0 l 329 0 l 329 154 m 375 553 l 461 553 l 461 154 l 375 154 l 375 0 l 511 0 l 622 111 l 622 596 l 511 707 l 375 707 l 375 553 z "},"":{"ha":692,"x_min":69,"x_max":622,"o":"m 224 706 l 69 706 l 69 0 l 224 0 l 224 706 m 269 551 l 461 551 l 461 435 l 269 435 l 269 281 l 511 281 l 622 392 l 622 594 l 511 706 l 269 706 l 269 551 z "},"":{"ha":692,"x_min":69,"x_max":622,"o":"m 325 154 l 279 0 l 283 0 l 301 -153 l 403 -153 l 419 -1 l 376 154 l 325 154 m 515 0 l 622 111 l 622 597 l 511 708 l 181 708 l 69 597 l 69 111 l 181 0 l 243 0 l 282 154 l 231 154 l 231 554 l 461 554 l 461 154 l 418 154 l 461 0 l 515 0 z "},"":{"ha":643,"x_min":69,"x_max":622,"o":"m 218 706 l 69 706 l 69 0 l 218 0 l 218 706 m 264 551 l 461 551 l 461 435 l 264 435 l 264 281 l 300 281 l 410 0 l 589 0 l 475 281 l 511 281 l 622 392 l 622 594 l 511 706 l 264 706 l 264 551 z "},"":{"ha":650,"x_min":69,"x_max":581,"o":"m 581 111 l 581 322 l 469 433 l 231 433 l 231 560 l 581 560 l 581 596 l 469 707 l 181 707 l 69 596 l 69 392 l 181 281 l 419 281 l 419 147 l 69 147 l 69 111 l 181 0 l 469 0 l 581 111 z "},"":{"ha":567,"x_min":14,"x_max":553,"o":"m 553 707 l 14 707 l 14 551 l 203 553 l 203 0 l 364 0 l 364 553 l 553 553 l 553 707 z "},"":{"ha":679,"x_min":69,"x_max":610,"o":"m 610 707 l 447 707 l 447 154 l 231 154 l 231 707 l 69 707 l 69 111 l 181 0 l 529 0 l 610 81 l 610 707 z "},"":{"ha":631,"x_min":0,"x_max":631,"o":"m 631 707 l 464 707 l 317 261 l 175 707 l 0 707 l 238 0 l 393 0 l 631 707 z "},"":{"ha":835,"x_min":0,"x_max":835,"o":"m 835 707 l 663 707 l 575 296 l 454 635 l 372 635 l 256 296 l 172 707 l 0 707 l 172 0 l 322 0 l 415 317 l 508 0 l 657 0 l 835 707 z "},"":{"ha":636,"x_min":0,"x_max":636,"o":"m 636 0 l 421 357 l 635 707 l 467 707 l 321 458 l 182 707 l 7 707 l 222 357 l 0 0 l 169 0 l 321 256 l 478 0 l 636 0 z "},"":{"ha":589,"x_min":0,"x_max":589,"o":"m 589 707 l 406 707 l 297 440 l 188 707 l 0 707 l 215 267 l 215 0 l 376 0 l 376 267 l 589 707 z "},"":{"ha":601,"x_min":42,"x_max":560,"o":"m 560 0 l 560 150 l 242 147 l 560 560 l 560 707 l 42 707 l 42 560 l 360 560 l 42 147 l 42 0 l 560 0 z "},"":{"ha":685,"x_min":0,"x_max":615,"o":"m 0 236 l 83 236 l 83 111 l 194 0 l 504 0 l 615 111 l 615 154 l 244 154 l 244 236 l 533 236 l 533 317 l 244 317 l 244 397 l 533 397 l 533 478 l 244 478 l 244 553 l 615 553 l 615 596 l 504 707 l 194 707 l 83 596 l 83 478 l 0 478 l 0 397 l 83 397 l 83 317 l 0 317 l 0 236 z "},"":{"ha":650,"x_min":69,"x_max":581,"o":"m 581 111 l 581 322 l 469 433 l 231 433 l 231 560 l 419 560 l 419 504 l 581 504 l 581 596 l 469 707 l 181 707 l 69 596 l 69 392 l 181 281 l 419 281 l 419 147 l 231 147 l 231 203 l 69 203 l 69 111 l 181 0 l 469 0 l 581 111 m 511 864 l 511 992 l 401 992 l 401 931 l 326 853 l 251 931 l 251 992 l 142 992 l 142 864 l 236 769 l 417 769 l 511 864 z "},"":{"ha":1011,"x_min":69,"x_max":969,"o":"m 969 0 l 969 154 l 622 154 l 622 274 l 836 274 l 836 435 l 622 435 l 622 554 l 963 554 l 963 708 l 181 707 l 69 596 l 69 111 l 181 0 l 969 0 m 461 154 l 231 154 l 231 553 l 461 553 l 461 154 z "},"":{"ha":328,"x_min":57,"x_max":274,"o":"m 274 0 l 225 451 l 104 451 l 57 0 l 274 0 m 247 539 l 247 706 l 81 706 l 81 539 l 247 539 z "},"":{"ha":660,"x_min":63,"x_max":532,"o":"m 532 218 l 532 261 l 224 261 l 224 426 l 532 426 l 532 469 l 421 581 l 360 581 l 360 707 l 238 707 l 238 581 l 174 581 l 63 469 l 63 218 l 174 107 l 238 107 l 238 1 l 360 1 l 360 107 l 421 107 l 532 218 z "},"":{"ha":606,"x_min":1,"x_max":589,"o":"m 478 0 l 589 111 l 589 154 l 276 154 l 276 250 l 444 250 l 444 331 l 276 331 l 276 397 l 444 397 l 444 478 l 276 478 l 276 554 l 515 554 l 515 597 l 404 708 l 226 708 l 115 597 l 115 478 l 18 478 l 18 397 l 115 397 l 115 331 l 18 331 l 18 250 l 115 250 l 115 154 l 1 29 l 1 -1 l 478 0 z "},"":{"ha":685,"x_min":0,"x_max":615,"o":"m 0 236 l 83 236 l 83 111 l 194 0 l 504 0 l 615 111 l 615 154 l 244 154 l 244 236 l 533 236 l 533 317 l 244 317 l 244 397 l 533 397 l 533 478 l 244 478 l 244 553 l 615 553 l 615 596 l 504 707 l 194 707 l 83 596 l 83 478 l 0 478 l 0 397 l 83 397 l 83 317 l 0 317 l 0 236 z "},"":{"ha":663,"x_min":0,"x_max":589,"o":"m 589 707 l 406 707 l 297 440 l 188 707 l 0 707 l 149 403 l 18 403 l 18 322 l 188 322 l 215 267 l 215 242 l 18 242 l 18 161 l 215 161 l 215 0 l 376 0 l 376 161 l 579 161 l 579 242 l 376 242 l 376 267 l 403 322 l 579 322 l 579 403 l 442 403 l 589 707 z "},"":{"ha":557,"x_min":49,"x_max":518,"o":"m 49 300 l 49 111 l 160 0 l 407 0 l 518 111 l 518 154 l 210 154 l 210 250 l 329 250 l 440 361 l 440 465 l 279 465 l 279 411 l 160 411 l 49 300 m 276 706 l 276 539 l 443 539 l 443 706 l 276 706 z "},"":{"ha":1271,"x_min":69,"x_max":1201,"o":"m 1201 111 l 1201 322 l 1090 433 l 851 433 l 851 560 l 1201 560 l 1201 596 l 1090 707 l 801 707 l 690 596 l 690 392 l 801 281 l 1040 281 l 1040 147 l 690 147 l 690 111 l 801 0 l 1090 0 l 1201 111 m 581 111 l 581 322 l 469 433 l 231 433 l 231 560 l 581 560 l 581 596 l 469 707 l 181 707 l 69 596 l 69 392 l 181 281 l 419 281 l 419 147 l 69 147 l 69 111 l 181 0 l 469 0 l 581 111 z "},"":{"ha":558,"x_min":0,"x_max":558,"o":"m 558 0 l 354 708 l 207 708 l 0 0 l 161 0 l 197 139 l 364 139 l 403 0 l 558 0 m 453 871 l 147 994 l 106 839 l 422 754 l 453 871 m 321 285 l 239 285 l 281 450 l 321 285 z "},"":{"ha":558,"x_min":0,"x_max":558,"o":"m 558 0 l 354 708 l 207 708 l 0 0 l 161 0 l 197 139 l 364 139 l 403 0 l 558 0 m 453 844 l 411 1000 l 106 876 l 136 760 l 453 844 m 321 285 l 239 285 l 281 450 l 321 285 z "},"":{"ha":558,"x_min":0,"x_max":558,"o":"m 558 0 l 354 708 l 207 708 l 0 0 l 161 0 l 197 139 l 364 139 l 403 0 l 558 0 m 507 825 l 360 972 l 199 972 l 51 825 l 129 747 l 279 839 l 429 747 l 507 825 m 321 285 l 239 285 l 281 450 l 321 285 z "},"":{"ha":558,"x_min":0,"x_max":558,"o":"m 558 0 l 354 708 l 207 708 l 0 0 l 161 0 l 197 139 l 364 139 l 403 0 l 558 0 m 558 863 l 439 982 l 293 982 l 197 886 l 99 985 l 0 886 l 119 767 l 265 767 l 361 863 l 460 764 l 558 863 m 321 285 l 239 285 l 281 450 l 321 285 z "},"":{"ha":558,"x_min":0,"x_max":558,"o":"m 558 0 l 354 708 l 207 708 l 0 0 l 161 0 l 197 139 l 364 139 l 403 0 l 558 0 m 199 769 l 199 931 l 38 931 l 38 769 l 199 769 m 521 769 l 521 931 l 360 931 l 360 769 l 521 769 m 321 285 l 239 285 l 281 450 l 321 285 z "},"":{"ha":558,"x_min":0,"x_max":558,"o":"m 419 758 l 419 924 l 363 979 l 197 979 l 142 924 l 142 758 l 199 703 l 206 703 l 0 0 l 161 0 l 197 139 l 364 139 l 403 0 l 558 0 l 356 703 l 364 703 l 419 758 m 338 783 l 222 783 l 222 899 l 339 899 l 338 783 m 321 285 l 239 285 l 281 450 l 321 285 z "},"":{"ha":868,"x_min":0,"x_max":811,"o":"m 811 0 l 811 154 l 547 154 l 547 274 l 706 274 l 706 435 l 547 435 l 547 554 l 804 554 l 804 708 l 311 708 l 0 0 l 174 0 l 233 132 l 386 132 l 386 0 l 811 0 m 386 278 l 296 278 l 386 510 l 386 278 z "},"":{"ha":657,"x_min":69,"x_max":622,"o":"m 622 111 l 622 154 l 231 154 l 231 553 l 622 553 l 622 596 l 511 707 l 181 707 l 69 596 l 69 111 l 181 0 l 300 0 l 300 -117 l 381 -117 l 381 -197 l 300 -197 l 300 -150 l 219 -150 l 219 -222 l 275 -278 l 406 -278 l 461 -222 l 461 -92 l 406 -36 l 381 -36 l 381 0 l 511 0 l 622 111 z "},"":{"ha":619,"x_min":69,"x_max":578,"o":"m 578 0 l 578 154 l 231 154 l 231 274 l 444 274 l 444 435 l 231 435 l 231 554 l 571 554 l 571 708 l 69 708 l 69 0 l 578 0 m 486 896 l 181 1019 l 139 864 l 456 779 l 486 896 z "},"":{"ha":619,"x_min":69,"x_max":578,"o":"m 578 0 l 578 154 l 231 154 l 231 274 l 444 274 l 444 435 l 231 435 l 231 554 l 571 554 l 571 708 l 69 708 l 69 0 l 578 0 m 506 850 l 464 1006 l 158 882 l 189 765 l 506 850 z "},"":{"ha":619,"x_min":69,"x_max":578,"o":"m 578 0 l 578 154 l 231 154 l 231 274 l 444 274 l 444 435 l 231 435 l 231 554 l 571 554 l 571 708 l 69 708 l 69 0 l 578 0 m 543 854 l 396 1001 l 235 1001 l 88 854 l 165 776 l 315 868 l 465 776 l 543 854 z "},"":{"ha":619,"x_min":69,"x_max":578,"o":"m 578 0 l 578 154 l 231 154 l 231 274 l 444 274 l 444 435 l 231 435 l 231 554 l 571 554 l 571 708 l 69 708 l 69 0 l 578 0 m 238 793 l 238 954 l 76 954 l 76 793 l 238 793 m 560 793 l 560 954 l 399 954 l 399 793 l 560 793 z "},"":{"ha":300,"x_min":-28,"x_max":319,"o":"m 231 707 l 69 707 l 69 0 l 231 0 l 231 707 m 319 885 l 14 1008 l -28 853 l 289 768 l 319 885 z "},"":{"ha":300,"x_min":-33,"x_max":314,"o":"m 231 707 l 69 707 l 69 0 l 231 0 l 231 707 m 314 853 l 272 1008 l -33 885 l -3 768 l 314 853 z "},"":{"ha":300,"x_min":-78,"x_max":378,"o":"m 231 707 l 69 707 l 69 0 l 231 0 l 231 707 m 378 847 l 231 994 l 69 994 l -78 847 l 0 769 l 150 861 l 300 769 l 378 847 z "},"":{"ha":300,"x_min":-58,"x_max":363,"o":"m 231 707 l 69 707 l 69 0 l 231 0 l 231 707 m 363 790 l 363 951 l 201 951 l 201 790 l 363 790 m 103 790 l 103 951 l -58 951 l -58 790 l 103 790 z "},"":{"ha":693,"x_min":1,"x_max":624,"o":"m 624 111 l 624 594 l 513 706 l 69 706 l 69 415 l 1 415 l 1 315 l 69 315 l 69 0 l 513 0 l 624 111 m 463 154 l 232 154 l 232 315 l 371 315 l 371 415 l 232 415 l 232 551 l 463 551 l 463 154 z "},"":{"ha":650,"x_min":53,"x_max":611,"o":"m 581 0 l 581 707 l 422 707 l 422 328 l 210 707 l 69 707 l 69 0 l 228 0 l 228 378 l 440 0 l 581 0 m 611 883 l 492 1003 l 346 1003 l 250 907 l 151 1006 l 53 907 l 172 788 l 318 788 l 414 883 l 513 785 l 611 883 z "},"":{"ha":692,"x_min":69,"x_max":622,"o":"m 622 111 l 622 596 l 511 707 l 181 707 l 69 596 l 69 111 l 181 0 l 511 0 l 622 111 m 461 154 l 231 154 l 231 553 l 461 553 l 461 154 m 535 885 l 229 1008 l 188 853 l 504 768 l 535 885 z "},"":{"ha":692,"x_min":69,"x_max":622,"o":"m 622 111 l 622 596 l 511 707 l 181 707 l 69 596 l 69 111 l 181 0 l 511 0 l 622 111 m 461 154 l 231 154 l 231 553 l 461 553 l 461 154 m 535 853 l 493 1008 l 188 885 l 218 768 l 535 853 z "},"":{"ha":692,"x_min":69,"x_max":622,"o":"m 622 111 l 622 596 l 511 707 l 181 707 l 69 596 l 69 111 l 181 0 l 511 0 l 622 111 m 461 154 l 231 154 l 231 553 l 461 553 l 461 154 m 574 847 l 426 994 l 265 994 l 118 847 l 196 769 l 346 861 l 496 769 l 574 847 z "},"":{"ha":692,"x_min":69,"x_max":629,"o":"m 625 111 l 625 596 l 514 707 l 183 707 l 72 596 l 72 111 l 183 0 l 514 0 l 625 111 m 464 154 l 233 154 l 233 553 l 464 553 l 464 154 m 629 878 l 508 997 l 363 997 l 267 901 l 168 1000 l 69 903 l 190 782 l 336 782 l 432 878 l 531 779 l 629 878 z "},"":{"ha":692,"x_min":69,"x_max":622,"o":"m 622 111 l 622 596 l 511 707 l 181 707 l 69 596 l 69 111 l 181 0 l 511 0 l 622 111 m 461 154 l 231 154 l 231 553 l 461 553 l 461 154 m 588 790 l 588 951 l 426 951 l 426 790 l 588 790 m 265 790 l 265 951 l 104 951 l 104 790 l 265 790 z "},"":{"ha":692,"x_min":-8,"x_max":699,"o":"m 699 679 l 640 735 l 564 653 l 510 707 l 179 707 l 68 596 l 68 111 l -8 28 l 50 -28 l 125 54 l 179 0 l 510 0 l 621 111 l 621 594 l 699 679 m 460 538 l 229 286 l 229 553 l 460 553 l 460 538 m 460 154 l 229 154 l 229 168 l 460 419 l 460 154 z "},"":{"ha":678,"x_min":69,"x_max":610,"o":"m 610 707 l 447 707 l 447 154 l 231 154 l 231 707 l 69 707 l 69 111 l 181 0 l 529 0 l 610 81 l 610 707 m 521 885 l 215 1008 l 174 853 l 490 768 l 521 885 z "},"":{"ha":678,"x_min":69,"x_max":610,"o":"m 610 707 l 447 707 l 447 154 l 231 154 l 231 707 l 69 707 l 69 111 l 181 0 l 529 0 l 610 81 l 610 707 m 556 853 l 514 1008 l 208 885 l 239 768 l 556 853 z "},"":{"ha":678,"x_min":69,"x_max":610,"o":"m 610 707 l 447 707 l 447 154 l 231 154 l 231 707 l 69 707 l 69 111 l 181 0 l 529 0 l 610 81 l 610 707 m 571 847 l 424 994 l 263 994 l 115 847 l 193 769 l 343 861 l 493 769 l 571 847 z "},"":{"ha":678,"x_min":69,"x_max":610,"o":"m 610 707 l 447 707 l 447 154 l 231 154 l 231 707 l 69 707 l 69 111 l 181 0 l 529 0 l 610 81 l 610 707 m 571 790 l 571 951 l 410 951 l 410 790 l 571 790 m 249 790 l 249 951 l 88 951 l 88 790 l 249 790 z "},"":{"ha":589,"x_min":0,"x_max":589,"o":"m 589 707 l 406 707 l 297 440 l 188 707 l 0 707 l 215 267 l 215 0 l 376 0 l 376 267 l 589 707 m 550 854 l 508 1010 l 203 886 l 233 769 l 550 854 z "},"":{"ha":664,"x_min":69,"x_max":594,"o":"m 594 194 l 594 513 l 483 624 l 311 624 l 231 543 l 231 710 l 69 710 l 69 0 l 231 0 l 231 164 l 311 83 l 483 83 l 594 194 m 433 238 l 231 238 l 231 469 l 433 469 l 433 238 z "},"":{"ha":589,"x_min":0,"x_max":589,"o":"m 589 707 l 406 707 l 297 440 l 188 707 l 0 707 l 215 267 l 215 0 l 376 0 l 376 267 l 589 707 m 538 790 l 538 951 l 376 951 l 376 790 l 538 790 m 215 790 l 215 951 l 54 951 l 54 790 l 215 790 z "},"Ý":{"ha":663,"x_min":0,"x_max":663,"o":"m 525 1036 l 483 1192 l 178 1068 l 208 951 l 525 1036 m 663 889 l 479 889 l 336 538 l 188 889 l 0 889 l 254 364 l 256 0 l 415 0 l 415 364 l 663 889 z "},"Š":{"ha":692,"x_min":69,"x_max":622,"o":"m 554 1039 l 554 1167 l 444 1167 l 444 1106 l 369 1028 l 294 1106 l 294 1167 l 185 1167 l 185 1039 l 279 944 l 460 944 l 554 1039 m 622 111 l 622 421 l 511 533 l 238 533 l 238 725 l 619 725 l 619 818 l 549 889 l 181 889 l 69 778 l 69 481 l 181 369 l 454 369 l 454 164 l 72 164 l 72 71 l 143 0 l 511 0 l 622 111 z "},"š":{"ha":650,"x_min":69,"x_max":581,"o":"m 511 864 l 511 992 l 401 992 l 401 931 l 326 853 l 251 931 l 251 992 l 142 992 l 142 864 l 236 769 l 417 769 l 511 864 m 581 111 l 581 322 l 469 433 l 231 433 l 231 560 l 419 560 l 419 504 l 581 504 l 581 596 l 469 707 l 181 707 l 69 596 l 69 392 l 181 281 l 419 281 l 419 147 l 231 147 l 231 203 l 69 203 l 69 111 l 181 0 l 469 0 l 581 111 z "}}}
